# Blender 5.1.2
# www.blender.org
mtllib crusher.mtl
o mesh
v 1.187500 2.000000 1.000000
v 1.187500 2.000000 -1.062500
v 1.187500 0.250000 1.000000
v 1.187500 0.250000 -1.062500
v -0.187500 2.000000 1.000000
v -0.187500 2.000000 -1.062500
v -0.187500 0.250000 1.000000
v -0.187500 0.250000 -1.062500
vn 1.0000 -0.0000 -0.0000
vn -1.0000 -0.0000 -0.0000
vn -0.0000 1.0000 -0.0000
vn -0.0000 -1.0000 -0.0000
vn -0.0000 -0.0000 1.0000
vn -0.0000 -0.0000 -1.0000
vt 0.316406 1.000000
vt 0.191406 1.000000
vt 0.191406 0.890625
vt 0.316406 0.890625
vt 0.316406 0.777344
vt 0.316406 0.886719
vt 0.191406 0.886719
vt 0.191406 0.777344
vt 0.191406 0.648438
vt 0.277344 0.648438
vt 0.277344 0.773438
vt 0.191406 0.773438
vt 0.085938 0.609375
vt 0.085938 0.734375
vt 0.000000 0.734375
vt 0.000000 0.609375
vt 0.175781 0.625000
vt 0.175781 0.734375
vt 0.089844 0.734375
vt 0.089844 0.625000
vt 0.367188 0.773438
vt 0.281250 0.773438
vt 0.281250 0.664062
vt 0.367188 0.664062
s 1
usemtl m_c2e97238-7008-8d45-9e31-585bb5fd801b
f 2/1/1 1/2/1 3/3/1 4/4/1
f 7/5/2 5/6/2 6/7/2 8/8/2
f 5/9/3 1/10/3 2/11/3 6/12/3
f 4/13/4 3/14/4 7/15/4 8/16/4
f 3/17/5 1/18/5 5/19/5 7/20/5
f 6/21/6 2/22/6 4/23/6 8/24/6
o mesh.001
v 2.000000 0.250000 1.000000
v 2.000000 0.250000 -1.062500
v 2.000000 0.000000 1.000000
v 2.000000 -0.000000 -1.062500
v -1.000000 0.250000 1.000000
v -1.000000 0.250000 -1.062500
v -1.000000 0.000000 1.000000
v -1.000000 -0.000000 -1.062500
vn 1.0000 -0.0000 -0.0000
vn -1.0000 -0.0000 -0.0000
vn -0.0000 1.0000 -0.0000
vn -0.0000 -1.0000 -0.0000
vn -0.0000 -0.0000 1.0000
vn -0.0000 -0.0000 -1.0000
vt 0.449219 0.960938
vt 0.320312 0.960938
vt 0.320312 0.945312
vt 0.449219 0.945312
vt 0.449219 0.925781
vt 0.449219 0.941406
vt 0.320312 0.941406
vt 0.320312 0.925781
vt 0.000000 0.871094
vt 0.187500 0.871094
vt 0.187500 1.000000
vt 0.000000 1.000000
vt 0.187500 0.738281
vt 0.187500 0.867188
vt 0.000000 0.867188
vt 0.000000 0.738281
vt 0.507812 0.984375
vt 0.507812 1.000000
vt 0.320312 1.000000
vt 0.320312 0.984375
vt 0.507812 0.980469
vt 0.320312 0.980469
vt 0.320312 0.964844
vt 0.507812 0.964844
s 1
usemtl m_c2e97238-7008-8d45-9e31-585bb5fd801b
f 10/25/7 9/26/7 11/27/7 12/28/7
f 15/29/8 13/30/8 14/31/8 16/32/8
f 13/33/9 9/34/9 10/35/9 14/36/9
f 12/37/10 11/38/10 15/39/10 16/40/10
f 11/41/11 9/42/11 13/43/11 15/44/11
f 14/45/12 10/46/12 12/47/12 16/48/12
