# Blender 5.1.2
# www.blender.org
mtllib concrete_mixer.mtl
o cylinder
v 0.504658 0.169194 0.843656
v 0.504658 0.213388 0.799462
v 0.554061 0.299567 0.974029
v 0.554061 0.343761 0.929835
v 0.639629 0.264634 0.939096
v 0.639629 0.308828 0.894902
v 0.689033 0.204127 0.878590
v 0.689033 0.248322 0.834395
v 0.689033 0.134261 0.808723
v 0.689033 0.178455 0.764529
v 0.639629 0.073755 0.748217
v 0.639629 0.117949 0.704023
v 0.554061 0.038821 0.713283
v 0.554061 0.083016 0.669089
v 0.455254 0.038821 0.713283
v 0.455254 0.083016 0.669089
v 0.369686 0.073755 0.748217
v 0.369686 0.117949 0.704023
v 0.320283 0.134261 0.808723
v 0.320283 0.178455 0.764529
v 0.320283 0.204127 0.878590
v 0.320283 0.248322 0.834395
v 0.369686 0.264634 0.939096
v 0.369686 0.308828 0.894902
v 0.455254 0.299567 0.974029
v 0.455254 0.343761 0.929835
vn -0.0000 -0.7071 0.7071
vn 0.5000 0.6124 0.6124
vn -0.0000 0.7071 -0.7071
vn 0.8660 0.3536 0.3536
vn 1.0000 -0.0000 -0.0000
vn 0.8660 -0.3536 -0.3536
vn 0.5000 -0.6124 -0.6124
vn -0.0000 -0.7071 -0.7071
vn -0.5000 -0.6124 -0.6124
vn -0.8660 -0.3536 -0.3536
vn -1.0000 -0.0000 -0.0000
vn -0.8660 0.3536 0.3536
vn -0.5000 0.6124 0.6124
vn -0.0000 0.7071 0.7071
vt 0.486867 0.720461
vt 0.465477 0.732813
vt 0.453125 0.686719
vt 0.613914 0.843750
vt 0.638617 0.843750
vt 0.638617 0.859375
vt 0.613914 0.859375
vt 0.746727 0.392188
vt 0.768117 0.404539
vt 0.734375 0.438281
vt 0.499219 0.699070
vt 0.548883 0.781250
vt 0.573586 0.781250
vt 0.573586 0.796875
vt 0.548883 0.796875
vt 0.780469 0.425930
vt 0.499219 0.674367
vt 0.598289 0.781250
vt 0.598289 0.796875
vt 0.780469 0.450633
vt 0.486867 0.652977
vt 0.622992 0.781250
vt 0.622992 0.796875
vt 0.768117 0.472023
vt 0.465477 0.640625
vt 0.705133 0.500000
vt 0.729836 0.500000
vt 0.729836 0.515625
vt 0.705133 0.515625
vt 0.746727 0.484375
vt 0.440773 0.640625
vt 0.754539 0.500000
vt 0.754539 0.515625
vt 0.722023 0.484375
vt 0.419383 0.652977
vt 0.779242 0.500000
vt 0.779242 0.515625
vt 0.700633 0.472023
vt 0.407031 0.674367
vt 0.564508 0.812500
vt 0.589211 0.812500
vt 0.589211 0.828125
vt 0.564508 0.828125
vt 0.688281 0.450633
vt 0.407031 0.699070
vt 0.613914 0.812500
vt 0.613914 0.828125
vt 0.688281 0.425930
vt 0.419383 0.720461
vt 0.638617 0.812500
vt 0.638617 0.828125
vt 0.700633 0.404539
vt 0.440773 0.732813
vt 0.564508 0.843750
vt 0.589211 0.843750
vt 0.589211 0.859375
vt 0.564508 0.859375
vt 0.722023 0.392188
s 1
usemtl m_e7258974-a33e-ab06-380f-647cc33bb97c
f 5/1/1 3/2/1 1/3/1
f 3/4/2 5/5/2 6/6/2 4/7/2
f 4/8/3 6/9/3 2/10/3
f 7/11/1 5/1/1 1/3/1
f 5/12/4 7/13/4 8/14/4 6/15/4
f 6/9/3 8/16/3 2/10/3
f 9/17/1 7/11/1 1/3/1
f 7/13/5 9/18/5 10/19/5 8/14/5
f 8/16/3 10/20/3 2/10/3
f 11/21/1 9/17/1 1/3/1
f 9/18/6 11/22/6 12/23/6 10/19/6
f 10/20/3 12/24/3 2/10/3
f 13/25/1 11/21/1 1/3/1
f 11/26/7 13/27/7 14/28/7 12/29/7
f 12/24/3 14/30/3 2/10/3
f 15/31/1 13/25/1 1/3/1
f 13/27/8 15/32/8 16/33/8 14/28/8
f 14/30/3 16/34/3 2/10/3
f 17/35/1 15/31/1 1/3/1
f 15/32/9 17/36/9 18/37/9 16/33/9
f 16/34/3 18/38/3 2/10/3
f 19/39/1 17/35/1 1/3/1
f 17/40/10 19/41/10 20/42/10 18/43/10
f 18/38/3 20/44/3 2/10/3
f 21/45/1 19/39/1 1/3/1
f 19/41/11 21/46/11 22/47/11 20/42/11
f 20/44/3 22/48/3 2/10/3
f 23/49/1 21/45/1 1/3/1
f 21/46/12 23/50/12 24/51/12 22/47/12
f 22/48/3 24/52/3 2/10/3
f 25/53/1 23/49/1 1/3/1
f 23/54/13 25/55/13 26/56/13 24/57/13
f 24/52/3 26/58/3 2/10/3
f 3/2/1 25/53/1 1/3/1
f 25/55/14 3/4/14 4/7/14 26/56/14
f 26/58/3 4/8/3 2/10/3
o mesh
v 1.004658 0.541513 0.492784
v 1.004658 0.408931 0.360201
v 1.004658 0.011183 1.023114
v 1.004658 -0.121399 0.890531
v 0.879658 0.541513 0.492784
v 0.879658 0.408931 0.360201
v 0.879658 0.011183 1.023114
v 0.879658 -0.121399 0.890531
vn 1.0000 -0.0000 -0.0000
vn -1.0000 -0.0000 -0.0000
vn -0.0000 0.7071 -0.7071
vn -0.0000 -0.7071 0.7071
vn -0.0000 0.7071 0.7071
vn -0.0000 -0.7071 -0.7071
vt 0.203125 0.312500
vt 0.156250 0.312500
vt 0.156250 0.125000
vt 0.203125 0.125000
vt 0.265625 0.093750
vt 0.265625 0.281250
vt 0.218750 0.281250
vt 0.218750 0.093750
vt 0.328125 0.812500
vt 0.359375 0.812500
vt 0.359375 0.859375
vt 0.328125 0.859375
vt 0.453125 0.953125
vt 0.453125 1.000000
vt 0.421875 1.000000
vt 0.421875 0.953125
vt 0.812500 0.187500
vt 0.812500 0.375000
vt 0.781250 0.375000
vt 0.781250 0.187500
vt 0.031250 0.203125
vt 0.000000 0.203125
vt 0.000000 0.015625
vt 0.031250 0.015625
s 1
usemtl m_e7258974-a33e-ab06-380f-647cc33bb97c
f 28/59/15 27/60/15 29/61/15 30/62/15
f 33/63/16 31/64/16 32/65/16 34/66/16
f 31/67/17 27/68/17 28/69/17 32/70/17
f 30/71/18 29/72/18 33/73/18 34/74/18
f 29/75/19 27/76/19 31/77/19 33/78/19
f 32/79/20 28/80/20 30/81/20 34/82/20
o mesh.001
v 0.129658 0.541513 0.492784
v 0.129658 0.408931 0.360201
v 0.129658 0.011183 1.023114
v 0.129658 -0.121399 0.890531
v 0.004658 0.541513 0.492784
v 0.004658 0.408931 0.360201
v 0.004658 0.011183 1.023114
v 0.004658 -0.121399 0.890531
vn 1.0000 -0.0000 -0.0000
vn -1.0000 -0.0000 -0.0000
vn -0.0000 0.7071 -0.7071
vn -0.0000 -0.7071 0.7071
vn -0.0000 0.7071 0.7071
vn -0.0000 -0.7071 -0.7071
vt 0.703125 0.375000
vt 0.656250 0.375000
vt 0.656250 0.187500
vt 0.703125 0.187500
vt 0.734375 0.734375
vt 0.734375 0.921875
vt 0.687500 0.921875
vt 0.687500 0.734375
vt 0.234375 0.812500
vt 0.265625 0.812500
vt 0.265625 0.859375
vt 0.234375 0.859375
vt 0.312500 0.812500
vt 0.312500 0.859375
vt 0.281250 0.859375
vt 0.281250 0.812500
vt 0.484375 0.046875
vt 0.484375 0.234375
vt 0.453125 0.234375
vt 0.453125 0.046875
vt 0.640625 0.234375
vt 0.609375 0.234375
vt 0.609375 0.046875
vt 0.640625 0.046875
s 1
usemtl m_e7258974-a33e-ab06-380f-647cc33bb97c
f 36/83/21 35/84/21 37/85/21 38/86/21
f 41/87/22 39/88/22 40/89/22 42/90/22
f 39/91/23 35/92/23 36/93/23 40/94/23
f 38/95/24 37/96/24 41/97/24 42/98/24
f 37/99/25 35/100/25 39/101/25 41/102/25
f 40/103/26 36/104/26 38/105/26 42/106/26
o mesh.002
v 0.135908 0.364737 0.617784
v 0.135908 0.497319 0.485201
v 0.135908 -0.121399 0.131648
v 0.135908 0.011183 -0.000935
v 0.010908 0.364737 0.617784
v 0.010908 0.497319 0.485201
v 0.010908 -0.121399 0.131648
v 0.010908 0.011183 -0.000935
vn 1.0000 -0.0000 -0.0000
vn -1.0000 -0.0000 -0.0000
vn -0.0000 0.7071 0.7071
vn -0.0000 -0.7071 -0.7071
vn -0.0000 -0.7071 0.7071
vn -0.0000 0.7071 -0.7071
vt 0.781250 0.718750
vt 0.734375 0.718750
vt 0.734375 0.546875
vt 0.781250 0.546875
vt 0.796875 0.828125
vt 0.796875 1.000000
vt 0.750000 1.000000
vt 0.750000 0.828125
vt 0.468750 0.953125
vt 0.500000 0.953125
vt 0.500000 1.000000
vt 0.468750 1.000000
vt 0.500000 0.890625
vt 0.500000 0.937500
vt 0.468750 0.937500
vt 0.468750 0.890625
vt 0.828125 0.640625
vt 0.828125 0.812500
vt 0.796875 0.812500
vt 0.796875 0.640625
vt 0.375000 0.203125
vt 0.343750 0.203125
vt 0.343750 0.031250
vt 0.375000 0.031250
s 1
usemtl m_e7258974-a33e-ab06-380f-647cc33bb97c
f 44/107/27 43/108/27 45/109/27 46/110/27
f 49/111/28 47/112/28 48/113/28 50/114/28
f 47/115/29 43/116/29 44/117/29 48/118/29
f 46/119/30 45/120/30 49/121/30 50/122/30
f 45/123/31 43/124/31 47/125/31 49/126/31
f 48/127/32 44/128/32 46/129/32 50/130/32
o mesh.003
v 0.998408 0.364737 0.617784
v 0.998408 0.497319 0.485201
v 0.998408 -0.121399 0.131648
v 0.998408 0.011183 -0.000935
v 0.873408 0.364737 0.617784
v 0.873408 0.497319 0.485201
v 0.873408 -0.121399 0.131648
v 0.873408 0.011183 -0.000935
vn 1.0000 -0.0000 -0.0000
vn -1.0000 -0.0000 -0.0000
vn -0.0000 0.7071 0.7071
vn -0.0000 -0.7071 -0.7071
vn -0.0000 -0.7071 0.7071
vn -0.0000 0.7071 -0.7071
vt 0.328125 0.281250
vt 0.281250 0.281250
vt 0.281250 0.109375
vt 0.328125 0.109375
vt 0.765625 0.203125
vt 0.765625 0.375000
vt 0.718750 0.375000
vt 0.718750 0.203125
vt 0.421875 0.890625
vt 0.453125 0.890625
vt 0.453125 0.937500
vt 0.421875 0.937500
vt 0.390625 0.500000
vt 0.390625 0.546875
vt 0.359375 0.546875
vt 0.359375 0.500000
vt 0.078125 0.031250
vt 0.078125 0.203125
vt 0.046875 0.203125
vt 0.046875 0.031250
vt 0.125000 0.203125
vt 0.093750 0.203125
vt 0.093750 0.031250
vt 0.125000 0.031250
s 1
usemtl m_e7258974-a33e-ab06-380f-647cc33bb97c
f 52/131/33 51/132/33 53/133/33 54/134/33
f 57/135/34 55/136/34 56/137/34 58/138/34
f 55/139/35 51/140/35 52/141/35 56/142/35
f 54/143/36 53/144/36 57/145/36 58/146/36
f 53/147/37 51/148/37 55/149/37 57/150/37
f 56/151/38 52/152/38 54/153/38 58/154/38
o tube.001
v 0.554479 0.344866 0.930940
v 0.621885 0.787913 0.843656
v 0.543781 0.316635 0.902708
v 0.596714 0.721486 0.777229
v 0.640773 0.309637 0.895710
v 0.824930 0.705020 0.760764
v 0.611546 0.288970 0.875044
v 0.756160 0.656392 0.712136
v 0.690595 0.248618 0.834691
v 0.942158 0.561446 0.617190
v 0.650670 0.241053 0.827127
v 0.848216 0.543647 0.599391
v 0.690595 0.178159 0.764233
v 0.942158 0.395661 0.451404
v 0.650670 0.185724 0.771797
v 0.848216 0.413460 0.469203
v 0.640773 0.117140 0.703214
v 0.824930 0.252087 0.307830
v 0.611546 0.137807 0.723881
v 0.756160 0.300715 0.356458
v 0.554479 0.081911 0.667984
v 0.621885 0.169194 0.224938
v 0.543781 0.110142 0.696216
v 0.596714 0.235621 0.291365
v 0.454836 0.081911 0.667984
v 0.387430 0.169194 0.224938
v 0.465534 0.110142 0.696216
v 0.412601 0.235621 0.291365
v 0.368542 0.117140 0.703214
v 0.184385 0.252087 0.307830
v 0.397769 0.137807 0.723881
v 0.253155 0.300715 0.356458
v 0.318720 0.178159 0.764233
v 0.067158 0.395661 0.451404
v 0.358645 0.185724 0.771797
v 0.161099 0.413460 0.469203
v 0.318720 0.248618 0.834691
v 0.067158 0.561446 0.617190
v 0.358645 0.241053 0.827127
v 0.161099 0.543647 0.599391
v 0.368542 0.309637 0.895710
v 0.184385 0.705020 0.760764
v 0.397769 0.288970 0.875044
v 0.253155 0.656392 0.712136
v 0.454836 0.344866 0.930940
v 0.387430 0.787913 0.843656
v 0.465534 0.316635 0.902708
v 0.412601 0.721486 0.777229
vn 0.4152 0.1146 0.9025
vn -0.4424 -0.2122 -0.8714
vn -0.0000 -0.7071 0.7071
vn -0.0000 0.7071 -0.7071
vn 0.7192 -0.1003 0.6875
vn -0.7662 0.0168 -0.6424
vn 0.8304 -0.3939 0.3939
vn -0.8847 0.3296 -0.3296
vn 0.7192 -0.6875 0.1003
vn -0.7662 0.6424 -0.0168
vn 0.4152 -0.9025 -0.1146
vn -0.4424 0.8714 0.2122
vn -0.0000 -0.9811 -0.1933
vn -0.0000 0.9552 0.2960
vn -0.4152 -0.9025 -0.1146
vn 0.4424 0.8714 0.2122
vn -0.7192 -0.6875 0.1003
vn 0.7662 0.6424 -0.0168
vn -0.8304 -0.3939 0.3939
vn 0.8847 0.3296 -0.3296
vn -0.7192 -0.1003 0.6875
vn 0.7662 0.0168 -0.6424
vn -0.4152 0.1146 0.9025
vn 0.4424 -0.2122 -0.8714
vn -0.0000 0.1933 0.9811
vn -0.0000 -0.2960 -0.9552
vt 0.332767 0.882275
vt 0.356591 0.875000
vt 0.405676 0.978048
vt 0.349619 0.995165
vt 0.047298 0.765625
vt 0.002684 0.754305
vt 0.041570 0.654851
vt 0.060531 0.659662
vt 0.119156 0.926737
vt 0.136097 0.916956
vt 0.143405 0.924264
vt 0.121830 0.936719
vt 0.138681 0.781250
vt 0.189444 0.810556
vt 0.172250 0.827750
vt 0.132389 0.804736
vt 0.424659 0.750000
vt 0.448483 0.757275
vt 0.431631 0.870165
vt 0.375574 0.853048
vt 0.325441 0.410555
vt 0.280827 0.421875
vt 0.267594 0.315912
vt 0.286555 0.311102
vt 0.145878 0.900016
vt 0.155859 0.902689
vt 0.218750 0.861319
vt 0.195264 0.867611
vt 0.473392 0.757275
vt 0.490244 0.870165
vt 0.234798 0.421875
vt 0.248031 0.315912
vt 0.145878 0.880453
vt 0.155859 0.877780
vt 0.218750 0.919931
vt 0.195264 0.913639
vt 0.497216 0.750000
vt 0.546301 0.853048
vt 0.190184 0.410555
vt 0.229070 0.311102
vt 0.136097 0.863513
vt 0.143405 0.856205
vt 0.189444 0.970694
vt 0.172250 0.953500
vt 0.049659 0.500000
vt 0.073483 0.507275
vt 0.056631 0.620165
vt 0.000574 0.603048
vt 0.669191 0.754305
vt 0.624577 0.765625
vt 0.611344 0.659662
vt 0.630305 0.654851
vt 0.119156 0.853731
vt 0.121830 0.843750
vt 0.138681 1.000000
vt 0.132389 0.976514
vt 0.098392 0.507275
vt 0.115244 0.620165
vt 0.578548 0.765625
vt 0.591781 0.659662
vt 0.099594 0.853731
vt 0.096920 0.843750
vt 0.080069 1.000000
vt 0.086361 0.976514
vt 0.122216 0.500000
vt 0.171301 0.603048
vt 0.533934 0.754305
vt 0.572820 0.654851
vt 0.082653 0.863513
vt 0.075345 0.856205
vt 0.029306 0.970694
vt 0.046500 0.953500
vt 0.440284 0.500000
vt 0.464108 0.507275
vt 0.447256 0.620165
vt 0.391199 0.603048
vt 0.669191 0.473055
vt 0.624577 0.484375
vt 0.611344 0.378412
vt 0.630305 0.373602
vt 0.072872 0.880453
vt 0.062891 0.877780
vt 0.000000 0.919931
vt 0.023486 0.913639
vt 0.489017 0.507275
vt 0.505869 0.620165
vt 0.578548 0.484375
vt 0.591781 0.378412
vt 0.072872 0.900016
vt 0.062891 0.902689
vt 0.000000 0.861319
vt 0.023486 0.867611
vt 0.512841 0.500000
vt 0.561926 0.603048
vt 0.533934 0.473055
vt 0.572820 0.373602
vt 0.082653 0.916956
vt 0.075345 0.924264
vt 0.029306 0.810556
vt 0.046500 0.827750
vt 0.284034 0.875000
vt 0.307858 0.882275
vt 0.291006 0.995165
vt 0.234949 0.978048
vt 0.137941 0.754305
vt 0.093327 0.765625
vt 0.080094 0.659662
vt 0.099055 0.654851
vt 0.099594 0.926737
vt 0.096920 0.936719
vt 0.080069 0.781250
vt 0.086361 0.804736
s 1
usemtl m_e7258974-a33e-ab06-380f-647cc33bb97c
f 59/155/39 63/156/39 64/157/39 60/158/39
f 62/159/40 66/160/40 65/161/40 61/162/40
f 61/163/41 65/164/41 63/165/41 59/166/41
f 60/167/42 64/168/42 66/169/42 62/170/42
f 63/171/43 67/172/43 68/173/43 64/174/43
f 66/175/44 70/176/44 69/177/44 65/178/44
f 65/164/41 69/179/41 67/180/41 63/165/41
f 64/168/42 68/181/42 70/182/42 66/169/42
f 67/172/45 71/183/45 72/184/45 68/173/45
f 70/176/46 74/185/46 73/186/46 69/177/46
f 69/179/41 73/187/41 71/188/41 67/180/41
f 68/181/42 72/189/42 74/190/42 70/182/42
f 71/183/47 75/191/47 76/192/47 72/184/47
f 74/185/48 78/193/48 77/194/48 73/186/48
f 73/187/41 77/195/41 75/196/41 71/188/41
f 72/189/42 76/197/42 78/198/42 74/190/42
f 75/199/49 79/200/49 80/201/49 76/202/49
f 78/203/50 82/204/50 81/205/50 77/206/50
f 77/195/41 81/207/41 79/208/41 75/196/41
f 76/197/42 80/209/42 82/210/42 78/198/42
f 79/200/51 83/211/51 84/212/51 80/201/51
f 82/204/52 86/213/52 85/214/52 81/205/52
f 81/207/41 85/215/41 83/216/41 79/208/41
f 80/209/42 84/217/42 86/218/42 82/210/42
f 83/211/53 87/219/53 88/220/53 84/212/53
f 86/213/54 90/221/54 89/222/54 85/214/54
f 85/215/41 89/223/41 87/224/41 83/216/41
f 84/217/42 88/225/42 90/226/42 86/218/42
f 87/227/55 91/228/55 92/229/55 88/230/55
f 90/231/56 94/232/56 93/233/56 89/234/56
f 89/223/41 93/235/41 91/236/41 87/224/41
f 88/225/42 92/237/42 94/238/42 90/226/42
f 91/228/57 95/239/57 96/240/57 92/229/57
f 94/232/58 98/241/58 97/242/58 93/233/58
f 93/235/41 97/243/41 95/244/41 91/236/41
f 92/237/42 96/245/42 98/246/42 94/238/42
f 95/239/59 99/247/59 100/248/59 96/240/59
f 98/241/60 102/249/60 101/250/60 97/242/60
f 97/243/41 101/251/41 99/252/41 95/244/41
f 96/245/42 100/253/42 102/254/42 98/246/42
f 99/255/61 103/256/61 104/257/61 100/258/61
f 102/259/62 106/260/62 105/261/62 101/262/62
f 101/251/41 105/263/41 103/264/41 99/252/41
f 100/253/42 104/265/42 106/266/42 102/254/42
f 103/256/63 59/155/63 60/158/63 104/257/63
f 106/260/64 62/159/64 61/162/64 105/261/64
f 105/263/41 61/163/41 59/166/41 103/264/41
f 104/265/42 60/167/42 62/170/42 106/266/42
o tube.002
v 0.454836 0.875196 0.400610
v 0.387430 0.787913 0.843656
v 0.465534 0.846965 0.372378
v 0.412601 0.721486 0.777229
v 0.368542 0.839967 0.365380
v 0.184385 0.705020 0.760764
v 0.397769 0.819300 0.344713
v 0.253155 0.656392 0.712136
v 0.318720 0.778948 0.304361
v 0.067158 0.561446 0.617190
v 0.358645 0.771383 0.296797
v 0.161099 0.543647 0.599391
v 0.318720 0.708489 0.233903
v 0.067158 0.395661 0.451404
v 0.358645 0.716054 0.241467
v 0.161099 0.413460 0.469203
v 0.368542 0.647470 0.172884
v 0.184385 0.252087 0.307830
v 0.397769 0.668137 0.193550
v 0.253155 0.300715 0.356458
v 0.454836 0.612241 0.137654
v 0.387430 0.169194 0.224938
v 0.465534 0.640472 0.165886
v 0.412601 0.235621 0.291365
v 0.554479 0.612241 0.137654
v 0.621885 0.169194 0.224938
v 0.543781 0.640472 0.165886
v 0.596714 0.235621 0.291365
v 0.640773 0.647470 0.172884
v 0.824930 0.252087 0.307830
v 0.611546 0.668137 0.193550
v 0.756160 0.300715 0.356458
v 0.690595 0.708489 0.233903
v 0.942158 0.395661 0.451404
v 0.650670 0.716054 0.241467
v 0.848216 0.413460 0.469203
v 0.690595 0.778948 0.304361
v 0.942158 0.561446 0.617190
v 0.650670 0.771383 0.296797
v 0.848216 0.543647 0.599391
v 0.640773 0.839967 0.365380
v 0.824930 0.705020 0.760764
v 0.611546 0.819300 0.344713
v 0.756160 0.656392 0.712136
v 0.554479 0.875196 0.400610
v 0.621885 0.787913 0.843656
v 0.543781 0.846965 0.372378
v 0.596714 0.721486 0.777229
vn -0.4152 0.9025 0.1146
vn 0.4424 -0.8714 -0.2122
vn -0.0000 0.7071 -0.7071
vn -0.0000 -0.7071 0.7071
vn -0.7192 0.6875 -0.1003
vn 0.7662 -0.6424 0.0168
vn -0.8304 0.3939 -0.3939
vn 0.8847 -0.3296 0.3296
vn -0.7192 0.1003 -0.6875
vn 0.7662 -0.0168 0.6424
vn -0.4152 -0.1146 -0.9025
vn 0.4424 0.2122 0.8714
vn -0.0000 -0.1933 -0.9811
vn -0.0000 0.2960 0.9552
vn 0.4152 -0.1146 -0.9025
vn -0.4424 0.2122 0.8714
vn 0.7192 0.1003 -0.6875
vn -0.7662 -0.0168 0.6424
vn 0.8304 0.3939 -0.3939
vn -0.8847 -0.3296 0.3296
vn 0.7192 0.6875 -0.1003
vn -0.7662 -0.6424 0.0168
vn 0.4152 0.9025 0.1146
vn -0.4424 -0.8714 -0.2122
vn -0.0000 0.9811 0.1933
vn -0.0000 -0.9552 -0.2960
vt 0.270267 0.444775
vt 0.294091 0.437500
vt 0.343176 0.540548
vt 0.287119 0.557665
vt 0.625423 0.625000
vt 0.580809 0.613680
vt 0.619695 0.514226
vt 0.638656 0.519037
vt 0.291031 0.723612
vt 0.307972 0.713831
vt 0.315280 0.721139
vt 0.293705 0.733594
vt 0.310556 0.578125
vt 0.361319 0.607431
vt 0.344125 0.624625
vt 0.304264 0.601611
vt 0.565284 0.875000
vt 0.589108 0.882275
vt 0.572256 0.995165
vt 0.516199 0.978048
vt 0.622316 0.332430
vt 0.577702 0.343750
vt 0.564469 0.237788
vt 0.583430 0.232977
vt 0.317753 0.696891
vt 0.327734 0.699564
vt 0.390625 0.658194
vt 0.367139 0.664486
vt 0.614017 0.882275
vt 0.630869 0.995165
vt 0.531673 0.343750
vt 0.544906 0.237788
vt 0.317753 0.677328
vt 0.327734 0.674655
vt 0.390625 0.716806
vt 0.367139 0.710514
vt 0.637841 0.875000
vt 0.686926 0.978048
vt 0.487059 0.332430
vt 0.525945 0.232977
vt 0.307972 0.660388
vt 0.315280 0.653080
vt 0.361319 0.767569
vt 0.344125 0.750375
vt 0.049659 0.359375
vt 0.073483 0.366650
vt 0.056631 0.479540
vt 0.000574 0.462423
vt 0.137941 0.332430
vt 0.093327 0.343750
vt 0.080094 0.237788
vt 0.099055 0.232977
vt 0.291031 0.650606
vt 0.293705 0.640625
vt 0.310556 0.796875
vt 0.304264 0.773389
vt 0.098392 0.366650
vt 0.115244 0.479540
vt 0.047298 0.343750
vt 0.060531 0.237788
vt 0.271469 0.650606
vt 0.268795 0.640625
vt 0.251944 0.796875
vt 0.258236 0.773389
vt 0.122216 0.359375
vt 0.171301 0.462423
vt 0.002684 0.332430
vt 0.041570 0.232977
vt 0.254528 0.660388
vt 0.247220 0.653080
vt 0.201181 0.767569
vt 0.218375 0.750375
vt 0.393409 0.359375
vt 0.417233 0.366650
vt 0.400381 0.479540
vt 0.344324 0.462423
vt 0.466066 0.332430
vt 0.421452 0.343750
vt 0.408219 0.237788
vt 0.427180 0.232977
vt 0.244747 0.677328
vt 0.234766 0.674655
vt 0.171875 0.716806
vt 0.195361 0.710514
vt 0.442142 0.366650
vt 0.458994 0.479540
vt 0.375423 0.343750
vt 0.388656 0.237788
vt 0.244747 0.696891
vt 0.234766 0.699564
vt 0.171875 0.658194
vt 0.195361 0.664486
vt 0.465966 0.359375
vt 0.515051 0.462423
vt 0.330809 0.332430
vt 0.369695 0.232977
vt 0.254528 0.713831
vt 0.247220 0.721139
vt 0.201181 0.607431
vt 0.218375 0.624625
vt 0.221534 0.437500
vt 0.245358 0.444775
vt 0.228506 0.557665
vt 0.172449 0.540548
vt 0.716066 0.613680
vt 0.671452 0.625000
vt 0.658219 0.519037
vt 0.677180 0.514226
vt 0.271469 0.723612
vt 0.268795 0.733594
vt 0.251944 0.578125
vt 0.258236 0.601611
s 1
usemtl m_e7258974-a33e-ab06-380f-647cc33bb97c
f 107/267/65 111/268/65 112/269/65 108/270/65
f 110/271/66 114/272/66 113/273/66 109/274/66
f 109/275/67 113/276/67 111/277/67 107/278/67
f 108/279/68 112/280/68 114/281/68 110/282/68
f 111/283/69 115/284/69 116/285/69 112/286/69
f 114/287/70 118/288/70 117/289/70 113/290/70
f 113/276/67 117/291/67 115/292/67 111/277/67
f 112/280/68 116/293/68 118/294/68 114/281/68
f 115/284/71 119/295/71 120/296/71 116/285/71
f 118/288/72 122/297/72 121/298/72 117/289/72
f 117/291/67 121/299/67 119/300/67 115/292/67
f 116/293/68 120/301/68 122/302/68 118/294/68
f 119/295/73 123/303/73 124/304/73 120/296/73
f 122/297/74 126/305/74 125/306/74 121/298/74
f 121/299/67 125/307/67 123/308/67 119/300/67
f 120/301/68 124/309/68 126/310/68 122/302/68
f 123/311/75 127/312/75 128/313/75 124/314/75
f 126/315/76 130/316/76 129/317/76 125/318/76
f 125/307/67 129/319/67 127/320/67 123/308/67
f 124/309/68 128/321/68 130/322/68 126/310/68
f 127/312/77 131/323/77 132/324/77 128/313/77
f 130/316/78 134/325/78 133/326/78 129/317/78
f 129/319/67 133/327/67 131/328/67 127/320/67
f 128/321/68 132/329/68 134/330/68 130/322/68
f 131/323/79 135/331/79 136/332/79 132/324/79
f 134/325/80 138/333/80 137/334/80 133/326/80
f 133/327/67 137/335/67 135/336/67 131/328/67
f 132/329/68 136/337/68 138/338/68 134/330/68
f 135/339/81 139/340/81 140/341/81 136/342/81
f 138/343/82 142/344/82 141/345/82 137/346/82
f 137/335/67 141/347/67 139/348/67 135/336/67
f 136/337/68 140/349/68 142/350/68 138/338/68
f 139/340/83 143/351/83 144/352/83 140/341/83
f 142/344/84 146/353/84 145/354/84 141/345/84
f 141/347/67 145/355/67 143/356/67 139/348/67
f 140/349/68 144/357/68 146/358/68 142/350/68
f 143/351/85 147/359/85 148/360/85 144/352/85
f 146/353/86 150/361/86 149/362/86 145/354/86
f 145/355/67 149/363/67 147/364/67 143/356/67
f 144/357/68 148/365/68 150/366/68 146/358/68
f 147/367/87 151/368/87 152/369/87 148/370/87
f 150/371/88 154/372/88 153/373/88 149/374/88
f 149/363/67 153/375/67 151/376/67 147/364/67
f 148/365/68 152/377/68 154/378/68 150/366/68
f 151/368/89 107/267/89 108/270/89 152/369/89
f 154/372/90 110/271/90 109/274/90 153/373/90
f 153/375/67 109/275/67 107/278/67 151/376/67
f 152/377/68 108/279/68 110/282/68 154/378/68
