# Made in Blockbench 5.1.4
mtllib cmmm.mtl

o tube
v 0.13397459621556132 0 0.49999999999999994
v 0.13397459621556132 1 0.49999999999999994
v 0.10520705918813916 0 0.3926380902050415
v 0.10520705918813916 1 0.3926380902050415
v 0.3660254037844386 0 0.36602540378443865
v 0.3660254037844386 1 0.36602540378443865
v 0.28743103101690226 0 0.2874310310169023
v 0.28743103101690226 1 0.2874310310169023
v 0.49999999999999994 0 0.13397459621556132
v 0.49999999999999994 1 0.13397459621556132
v 0.3926380902050415 0 0.10520705918813916
v 0.3926380902050415 1 0.10520705918813916
v 0.49999999999999994 0 -0.13397459621556138
v 0.49999999999999994 1 -0.13397459621556138
v 0.3926380902050415 0 -0.1052070591881392
v 0.3926380902050415 1 -0.1052070591881392
v 0.36602540378443865 0 -0.3660254037844386
v 0.36602540378443865 1 -0.3660254037844386
v 0.2874310310169023 0 -0.28743103101690226
v 0.2874310310169023 1 -0.28743103101690226
v 0.1339745962155615 0 -0.4999999999999999
v 0.1339745962155615 1 -0.4999999999999999
v 0.10520705918813927 0 -0.3926380902050414
v 0.10520705918813927 1 -0.3926380902050414
v -0.13397459621556113 0 -0.5
v -0.13397459621556113 1 -0.5
v -0.105207059188139 0 -0.39263809020504153
v -0.105207059188139 1 -0.39263809020504153
v -0.3660254037844386 0 -0.3660254037844387
v -0.3660254037844386 1 -0.3660254037844387
v -0.28743103101690226 0 -0.28743103101690237
v -0.28743103101690226 1 -0.28743103101690237
v -0.49999999999999994 0 -0.13397459621556126
v -0.49999999999999994 1 -0.13397459621556126
v -0.3926380902050415 0 -0.10520705918813912
v -0.3926380902050415 1 -0.10520705918813912
v -0.5 0 0.1339745962155611
v -0.5 1 0.1339745962155611
v -0.39263809020504153 0 0.10520705918813898
v -0.39263809020504153 1 0.10520705918813898
v -0.3660254037844387 0 0.36602540378443854
v -0.3660254037844387 1 0.36602540378443854
v -0.28743103101690237 0 0.2874310310169022
v -0.28743103101690237 1 0.2874310310169022
v -0.1339745962155613 0 0.49999999999999994
v -0.1339745962155613 1 0.49999999999999994
v -0.10520705918813913 0 0.3926380902050415
v -0.10520705918813913 1 0.3926380902050415
vt 0.13505625 0.453125
vt 0.20204375000000002 0.453125
vt 0.20204375000000002 0.578125
vt 0.13505625 0.578125
vt 0.5283859375 0.71875
vt 0.4757828125 0.71875
vt 0.4757828125 0.59375
vt 0.5283859375 0.59375
vt 0.1513015625 0.973159375
vt 0.1968578125 0.9468578125
vt 0.21650625 0.96650625
vt 0.15849375 1
vt 0.36161875 0.53125
vt 0.41963125 0.56474375
vt 0.3999828125 0.5843921875
vt 0.3544265625 0.558090625
vt 0.26670625 0.875
vt 0.33369375 0.875
vt 0.33369375 1
vt 0.26670625 1
vt 0.16484218750000001 0.734375
vt 0.1122390625 0.734375
vt 0.1122390625 0.609375
vt 0.16484218750000001 0.609375
vt 0.1968578125 0.9468578125
vt 0.223159375 0.9013015625
vt 0.25 0.90849375
vt 0.21650625 0.96650625
vt 0.41963125 0.56474375
vt 0.453125 0.62275625
vt 0.426284375 0.6299484375
vt 0.3999828125 0.5843921875
vt 0.33369375 0.875
vt 0.40068125 0.875
vt 0.40068125 1
vt 0.33369375 1
vt 0.1122390625 0.734375
vt 0.0596359375 0.734375
vt 0.0596359375 0.609375
vt 0.1122390625 0.609375
vt 0.223159375 0.9013015625
vt 0.223159375 0.8486984375
vt 0.25 0.84150625
vt 0.25 0.90849375
vt 0.453125 0.62275625
vt 0.453125 0.68974375
vt 0.426284375 0.6825515625
vt 0.426284375 0.6299484375
vt 0.40068125 0.875
vt 0.46766875 0.875
vt 0.46766875 1
vt 0.40068125 1
vt 0.0596359375 0.734375
vt 0.007032812499999999 0.734375
vt 0.007032812499999999 0.609375
vt 0.0596359375 0.609375
vt 0.223159375 0.8486984375
vt 0.1968578125 0.8031421875
vt 0.21650625 0.78349375
vt 0.25 0.84150625
vt 0.453125 0.68974375
vt 0.41963125 0.74775625
vt 0.3999828125 0.7281078125
vt 0.426284375 0.6825515625
vt 0.45420625 0.453125
vt 0.52119375 0.453125
vt 0.52119375 0.578125
vt 0.45420625 0.578125
vt 0.3835921875 0.515625
vt 0.3309890625 0.515625
vt 0.3309890625 0.390625
vt 0.3835921875 0.390625
vt 0.1968578125 0.8031421875
vt 0.1513015625 0.776840625
vt 0.15849375 0.75
vt 0.21650625 0.78349375
vt 0.41963125 0.74775625
vt 0.36161875 0.78125
vt 0.3544265625 0.754409375
vt 0.3999828125 0.7281078125
vt 0.52119375 0.453125
vt 0.58818125 0.453125
vt 0.58818125 0.578125
vt 0.52119375 0.578125
vt 0.3309890625 0.515625
vt 0.2783859375 0.515625
vt 0.2783859375 0.390625
vt 0.3309890625 0.390625
vt 0.1513015625 0.776840625
vt 0.0986984375 0.776840625
vt 0.09150625 0.75
vt 0.15849375 0.75
vt 0.36161875 0.78125
vt 0.29463125 0.78125
vt 0.3018234375 0.754409375
vt 0.3544265625 0.754409375
vt 0.58818125 0.453125
vt 0.6551687500000001 0.453125
vt 0.6551687500000001 0.578125
vt 0.58818125 0.578125
vt 0.2783859375 0.515625
vt 0.22578281249999999 0.515625
vt 0.22578281249999999 0.390625
vt 0.2783859375 0.390625
vt 0.0986984375 0.776840625
vt 0.05314218749999999 0.8031421875
vt 0.03349375 0.78349375
vt 0.09150625 0.75
vt 0.29463125 0.78125
vt 0.23661875 0.74775625
vt 0.2562671875 0.7281078125
vt 0.3018234375 0.754409375
vt 0.45420625 0.734375
vt 0.52119375 0.734375
vt 0.52119375 0.859375
vt 0.45420625 0.859375
vt 0.6492171875 1
vt 0.5966140625 1
vt 0.5966140625 0.875
vt 0.6492171875 0.875
vt 0.05314218749999999 0.8031421875
vt 0.026840625000000007 0.8486984375
vt 0 0.84150625
vt 0.03349375 0.78349375
vt 0.23661875 0.74775625
vt 0.203125 0.68974375
vt 0.229965625 0.6825515625
vt 0.2562671875 0.7281078125
vt 0.52119375 0.734375
vt 0.58818125 0.734375
vt 0.58818125 0.859375
vt 0.52119375 0.859375
vt 0.5966140625 1
vt 0.5440109375 1
vt 0.5440109375 0.875
vt 0.5966140625 0.875
vt 0.026840625000000007 0.8486984375
vt 0.026840625000000007 0.9013015625
vt 0 0.90849375
vt 0 0.84150625
vt 0.203125 0.68974375
vt 0.203125 0.62275625
vt 0.229965625 0.6299484375
vt 0.229965625 0.6825515625
vt 0.58818125 0.734375
vt 0.6551687500000001 0.734375
vt 0.6551687500000001 0.859375
vt 0.58818125 0.859375
vt 0.5440109375 1
vt 0.4914078125 1
vt 0.4914078125 0.875
vt 0.5440109375 0.875
vt 0.026840625000000007 0.9013015625
vt 0.05314218749999999 0.9468578125
vt 0.03349375 0.96650625
vt 0 0.90849375
vt 0.203125 0.62275625
vt 0.23661875 0.56474375
vt 0.2562671875 0.5843921875
vt 0.229965625 0.6299484375
vt 0.001081249999999992 0.453125
vt 0.06806875 0.453125
vt 0.06806875 0.578125
vt 0.001081249999999992 0.578125
vt 0.6335921875 0.71875
vt 0.5809890625 0.71875
vt 0.5809890625 0.59375
vt 0.6335921875 0.59375
vt 0.05314218749999999 0.9468578125
vt 0.0986984375 0.973159375
vt 0.09150625 1
vt 0.03349375 0.96650625
vt 0.23661875 0.56474375
vt 0.29463125 0.53125
vt 0.3018234375 0.558090625
vt 0.2562671875 0.5843921875
vt 0.06806875 0.453125
vt 0.13505625 0.453125
vt 0.13505625 0.578125
vt 0.06806875 0.578125
vt 0.5809890625 0.71875
vt 0.5283859375 0.71875
vt 0.5283859375 0.59375
vt 0.5809890625 0.59375
vt 0.0986984375 0.973159375
vt 0.1513015625 0.973159375
vt 0.15849375 1
vt 0.09150625 1
vt 0.29463125 0.53125
vt 0.36161875 0.53125
vt 0.3544265625 0.558090625
vt 0.3018234375 0.558090625
vn 0.4999999999999999 0 0.8660254037844388
vn -0.5000000000000001 0 -0.8660254037844388
vn 0 -1 0
vn 0 1 0
vn 0.8660254037844388 0 0.5
vn -0.8660254037844386 0 -0.5000000000000001
vn 0 -1 0
vn 0 1 0
vn 1 0 0
vn -1 0 0
vn 0 -1 0
vn 0 1 0
vn 0.8660254037844388 0 -0.5
vn -0.8660254037844386 0 0.5000000000000001
vn 0 -1 0
vn 0 1 0
vn 0.5000000000000001 0 -0.8660254037844388
vn -0.5000000000000001 0 0.8660254037844386
vn 0 -1 0
vn 0 1 0
vn 4.143408735633879e-16 0 -1
vn -5.276371344244937e-16 0 1
vn 0 -1 0
vn 0 1 0
vn -0.4999999999999996 0 -0.8660254037844389
vn 0.4999999999999997 0 0.8660254037844389
vn 0 -1 0
vn 0 1 0
vn -0.8660254037844389 0 -0.4999999999999998
vn 0.8660254037844387 0 0.4999999999999999
vn 0 -1 0
vn 0 1 0
vn -1 0 -2.0717043678169412e-16
vn 1 0 2.6381856721224704e-16
vn 0 -1 0
vn 0 1 0
vn -0.8660254037844389 0 0.4999999999999996
vn 0.8660254037844388 0 -0.4999999999999998
vn 0 -1 0
vn 0 1 0
vn -0.4999999999999999 0 0.8660254037844386
vn 0.5000000000000001 0 -0.8660254037844386
vn 0 -1 0
vn 0 1 0
vn 0 0 1
vn 0 0 -1
vn 0 -1 0
vn 0 1 0
usemtl m_d6c7e02c-305f-b7ab-de7c-d5289e32fbf1
f 1/1/1 5/2/1 6/3/1 2/4/1
f 4/5/2 8/6/2 7/7/2 3/8/2
f 3/9/3 7/10/3 5/11/3 1/12/3
f 2/13/4 6/14/4 8/15/4 4/16/4
f 5/17/5 9/18/5 10/19/5 6/20/5
f 8/21/6 12/22/6 11/23/6 7/24/6
f 7/25/7 11/26/7 9/27/7 5/28/7
f 6/29/8 10/30/8 12/31/8 8/32/8
f 9/33/9 13/34/9 14/35/9 10/36/9
f 12/37/10 16/38/10 15/39/10 11/40/10
f 11/41/11 15/42/11 13/43/11 9/44/11
f 10/45/12 14/46/12 16/47/12 12/48/12
f 13/49/13 17/50/13 18/51/13 14/52/13
f 16/53/14 20/54/14 19/55/14 15/56/14
f 15/57/15 19/58/15 17/59/15 13/60/15
f 14/61/16 18/62/16 20/63/16 16/64/16
f 17/65/17 21/66/17 22/67/17 18/68/17
f 20/69/18 24/70/18 23/71/18 19/72/18
f 19/73/19 23/74/19 21/75/19 17/76/19
f 18/77/20 22/78/20 24/79/20 20/80/20
f 21/81/21 25/82/21 26/83/21 22/84/21
f 24/85/22 28/86/22 27/87/22 23/88/22
f 23/89/23 27/90/23 25/91/23 21/92/23
f 22/93/24 26/94/24 28/95/24 24/96/24
f 25/97/25 29/98/25 30/99/25 26/100/25
f 28/101/26 32/102/26 31/103/26 27/104/26
f 27/105/27 31/106/27 29/107/27 25/108/27
f 26/109/28 30/110/28 32/111/28 28/112/28
f 29/113/29 33/114/29 34/115/29 30/116/29
f 32/117/30 36/118/30 35/119/30 31/120/30
f 31/121/31 35/122/31 33/123/31 29/124/31
f 30/125/32 34/126/32 36/127/32 32/128/32
f 33/129/33 37/130/33 38/131/33 34/132/33
f 36/133/34 40/134/34 39/135/34 35/136/34
f 35/137/35 39/138/35 37/139/35 33/140/35
f 34/141/36 38/142/36 40/143/36 36/144/36
f 37/145/37 41/146/37 42/147/37 38/148/37
f 40/149/38 44/150/38 43/151/38 39/152/38
f 39/153/39 43/154/39 41/155/39 37/156/39
f 38/157/40 42/158/40 44/159/40 40/160/40
f 41/161/41 45/162/41 46/163/41 42/164/41
f 44/165/42 48/166/42 47/167/42 43/168/42
f 43/169/43 47/170/43 45/171/43 41/172/43
f 42/173/44 46/174/44 48/175/44 44/176/44
f 45/177/45 1/178/45 2/179/45 46/180/45
f 48/181/46 4/182/46 3/183/46 47/184/46
f 47/185/47 3/186/47 1/187/47 45/188/47
f 46/189/48 2/190/48 4/191/48 48/192/48