
mtllib cobblestone_panel.mtl

o mesh
v 0.5 1 -0.375
v 0.5 1 -0.5
v 0.5 0 -0.375
v 0.5 0 -0.5
v 0.375 1 -0.375
v 0.375 1 -0.5
v 0.375 0 -0.375
v 0.375 0 -0.5
vt 0.125 1
vt 0 1
vt 0 0
vt 0.125 0
vt 0.125 0
vt 0.125 1
vt 0 1
vt 0 0
vt 0 0.875
vt 0.125 0.875
vt 0.125 1
vt 0 1
vt 0.125 0.875
vt 0.125 1
vt 0 1
vt 0 0.875
vt 0.125 0
vt 0.125 1
vt 0 1
vt 0 0
vt 0.125 1
vt 0 1
vt 0 0
vt 0.125 0
vn 1 0 0
vn -1 0 0
vn 0 1 0
vn 0 -1 0
vn 0 0 1
vn 0 0 -1
usemtl PlaceHolderMAT
f 2/1/1 1/2/1 3/3/1 4/4/1
f 7/5/2 5/6/2 6/7/2 8/8/2
f 5/9/3 1/10/3 2/11/3 6/12/3
f 4/13/4 3/14/4 7/15/4 8/16/4
f 3/17/5 1/18/5 5/19/5 7/20/5
f 6/21/6 2/22/6 4/23/6 8/24/6
o tube
v 0.020933530658681435 0.578125 0.375
v 0.08373412263472582 0.8125 6.938893903907228e-17
v 0.016438602998146718 0.5613497015945377 0.375
v 0.06575441199258697 0.7453988063781509 5.4489481011310775e-17
v 0.0571914693413185 0.5571914693413185 0.375
v 0.2287658773652741 0.7287658773652742 5.0796228859900473e-17
v 0.04491109859639095 0.544911098596391 0.375
v 0.17964439438556387 0.6796443943855639 3.988906857833906e-17
v 0.07812499999999997 0.5209335306586814 0.375
v 0.3125 0.5837341226347259 1.8592710179171838e-17
v 0.0613497015945377 0.5164386029981467 0.375
v 0.2453988063781509 0.565754411992587 1.4600412432971736e-17
v 0.07812499999999997 0.4790664693413185 0.375
v 0.3125 0.4162658773652742 -1.8592710179171807e-17
v 0.0613497015945377 0.48356139700185324 0.375
v 0.2453988063781509 0.4342455880074131 -1.4600412432971702e-17
v 0.05719146934131851 0.4428085306586815 0.375
v 0.22876587736527418 0.27123412263472585 -5.079622885990046e-17
v 0.04491109859639097 0.455088901403609 0.375
v 0.17964439438556395 0.3203556056144361 -3.988906857833905e-17
v 0.02093353065868146 0.421875 0.375
v 0.08373412263472592 0.1875 -6.938893903907228e-17
v 0.016438602998146735 0.43865029840546227 0.375
v 0.06575441199258704 0.25460119362184913 -5.448948101131076e-17
v -0.02093353065868145 0.421875 0.375
v -0.08373412263472571 0.1875 -6.938893903907228e-17
v -0.01643860299814674 0.43865029840546227 0.375
v -0.06575441199258689 0.2546011936218491 -5.4489481011310775e-17
v -0.05719146934131856 0.4428085306586814 0.375
v -0.22876587736527415 0.2712341226347258 -5.0796228859900473e-17
v -0.044911098596391 0.45508890140360897 0.375
v -0.17964439438556393 0.320355605614436 -3.9889068578339073e-17
v -0.078125 0.4790664693413185 0.375
v -0.3125 0.4162658773652743 -1.859271017917179e-17
v -0.06134970159453776 0.48356139700185324 0.375
v -0.24539880637815095 0.43424558800741314 -1.460041243297169e-17
v -0.07812500000000003 0.5209335306586814 0.375
v -0.3125 0.5837341226347258 1.8592710179171807e-17
v -0.06134970159453776 0.5164386029981467 0.375
v -0.24539880637815095 0.5657544119925869 1.460041243297171e-17
v -0.057191469341318565 0.5571914693413185 0.375
v -0.22876587736527423 0.7287658773652741 5.079622885990045e-17
v -0.04491109859639102 0.544911098596391 0.375
v -0.179644394385564 0.6796443943855639 3.988906857833905e-17
v -0.02093353065868147 0.578125 0.375
v -0.08373412263472582 0.8125 6.938893903907228e-17
v -0.016438602998146763 0.5613497015945377 0.375
v -0.06575441199258697 0.7453988063781509 5.4489481011310775e-17
vt 0 0.5
vt 0.26795 0.5
vt 0.26795 1
vt 0 1
vt 0.2104125 1
vt 0 1
vt 0 0.5
vt 0.2104125 0.5
vt 5.551115123125783e-17 0.9712338382135871
vt 0 0.7608192340054607
vt 0.1073608929841336 0.7320513050606374
vt 0.1073631935017324 1
vt 0 0.8926370534788388
vt 0.26794869494923834 0.8926370534788388
vt 0.23918168777008322 0.9999981934508018
vt 0.028767083569711985 1
vt 0 0.5
vt 0.26795 0.5
vt 0.26795 1
vt 0 1
vt 0.2104125 1
vt 0 1
vt 0 0.5
vt 0.2104125 0.5
vt 0 0.9712320710551766
vt 5.551115123125783e-17 0.7608174668470502
vt 0.1073631935017324 0.7320513050606374
vt 0.10736089298413354 1
vt 0 0.892637053478839
vt 0.2679486949492383 0.8926370534788388
vt 0.2391816113795264 1
vt 0.028767007179155174 0.999998193450802
vt 0 0.5
vt 0.26795 0.5
vt 0.26795 1
vt 0 1
vt 0.2104125 1
vt 0 1
vt 0 0.5
vt 0.2104125 0.5
vt 0 0.97123125
vt 0 0.76081875
vt 0.10736250000000003 0.73205
vt 0.10736250000000003 1
vt 0.10736250000000003 0.73205
vt 0.10736250000000003 1
vt 0 0.97123125
vt 0 0.76081875
vt 0 0.5
vt 0.26795 0.5
vt 0.26795 1
vt 0 1
vt 0.2104125 1
vt 0 1
vt 0 0.5
vt 0.2104125 0.5
vt 0.23918253315294977 1
vt 0.02876792894482333 1
vt 0 0.8926391070158664
vt 0.26794869493936263 0.8926368064982676
vt 0.10736294652116113 0.7320513050507615
vt 0.10736294652116107 1
vt 0.0000018065491981245074 0.9712329928208447
vt 0 0.7608183886204736
vt 0 0.5
vt 0.26795 0.5
vt 0.26795 1
vt 0 1
vt 0.2104125 1
vt 0 1
vt 0 0.5
vt 0.2104125 0.5
vt 0.23918076599453925 1
vt 0.028766161786412836 1
vt 0 0.8926368064982676
vt 0.2679486949393626 0.8926391070158665
vt 0.10736294652116124 0.7320513050507617
vt 0.10736294652116118 1
vt 0 0.971232916430288
vt 0.0000018065491982910409 0.7608183122299168
vt 0 0.5
vt 0.26795 0.5
vt 0.26795 1
vt 0 1
vt 0.2104125 1
vt 0 1
vt 0 0.5
vt 0.2104125 0.5
vt 0.23918125 1
vt 0.02876875000000001 1
vt 0 0.8926375
vt 0.26795 0.8926375
vt 0.26795 1
vt 0 1
vt 0.02876875000000001 0.8926375
vt 0.23918125 0.8926375
vt 0 0.5
vt 0.26795 0.5
vt 0.26795 1
vt 0 1
vt 0.2104125 1
vt 0 1
vt 0 0.5
vt 0.2104125 0.5
vt 0.1073631935017324 0.7608174668470502
vt 0.10736319350173235 0.9712320710551767
vt 0.000002300517598752272 1
vt 0 0.7320513050606373
vt 0.26794869494923834 1
vt 0 1
vt 0.02876700717915512 0.892638860028037
vt 0.23918161137952637 0.8926370534788388
vt 0 0.5
vt 0.26795 0.5
vt 0.26795 1
vt 0 1
vt 0.2104125 1
vt 0 1
vt 0 0.5
vt 0.2104125 0.5
vt 0.1073631935017324 0.7608192340054607
vt 0.10736319350173235 0.9712338382135872
vt 0 1
vt 0.000002300517598863294 0.7320513050606374
vt 0.26794869494923834 1
vt 0 1
vt 0.028767083569712013 0.8926370534788388
vt 0.23918168777008322 0.892638860028037
vt 0 0.5
vt 0.26795 0.5
vt 0.26795 1
vt 0 1
vt 0.2104125 1
vt 0 1
vt 0 0.5
vt 0.2104125 0.5
vt 0.10736250000000003 0.76081875
vt 0.10736250000000003 0.97123125
vt 0 1
vt 0 0.73205
vt 0 1
vt 0 0.73205
vt 0.10736250000000003 0.76081875
vt 0.10736250000000003 0.97123125
vt 0 0.5
vt 0.26795 0.5
vt 0.26795 1
vt 0 1
vt 0.2104125 1
vt 0 1
vt 0 0.5
vt 0.2104125 0.5
vt 0.028766161786412864 0.8926368064982677
vt 0.2391807659945393 0.8926368064982676
vt 0.26794869493936263 0.9999976994824011
vt 0 1
vt 5.551115123125783e-17 1
vt 0 0.7320513050507617
vt 0.107361139971963 0.7608183122299168
vt 0.10736294652116124 0.971232916430288
vt 0 0.5
vt 0.26795 0.5
vt 0.26795 1
vt 0 1
vt 0.2104125 1
vt 0 1
vt 0 0.5
vt 0.2104125 0.5
vt 0.028767928944823357 0.8926368064982676
vt 0.23918253315294977 0.8926368064982677
vt 0.2679486949393626 1
vt 0 0.9999976994824011
vt 0 1
vt 5.551115123125783e-17 0.7320513050507617
vt 0.10736294652116124 0.7608183886204737
vt 0.10736113997196295 0.971232992820845
vt 0 0.5
vt 0.26795 0.5
vt 0.26795 1
vt 0 1
vt 0.2104125 1
vt 0 1
vt 0 0.5
vt 0.2104125 0.5
vt 0.02876875000000001 0.8926375
vt 0.23918125 0.8926375
vt 0.26795 1
vt 0 1
vt 0 0.8926375
vt 0.26795 0.8926375
vt 0.23918125 1
vt 0.02876875000000001 1
vn 0.4239991520025442 0.7343880736345254 0.5299989400031802
vn -0.44885359715502343 -0.7774372354325537 -0.4405925479215285
vn 0 -2.220446049250313e-16 1
vn 0 2.220446049250313e-16 -1
vn 0.7343880736345254 0.42399915200254396 0.52999894000318
vn -0.7774372354325534 -0.44885359715502354 -0.4405925479215285
vn 0 -2.220446049250313e-16 1
vn 0 2.220446049250313e-16 -1
vn 0.847998304005088 -1.1768340524369148e-16 0.52999894000318
vn -0.8977071943100468 9.783119823614872e-17 -0.4405925479215285
vn 0 -2.220446049250313e-16 1
vn 0 2.220446049250313e-16 -1
vn 0.7343880736345254 -0.4239991520025442 0.52999894000318
vn -0.7774372354325539 0.44885359715502315 -0.44059254792152847
vn 0 -2.220446049250313e-16 1
vn 0 2.220446049250313e-16 -1
vn 0.42399915200254384 -0.7343880736345255 0.52999894000318
vn -0.44885359715502327 0.7774372354325536 -0.4405925479215284
vn 0 -2.220446049250313e-16 1
vn 0 2.220446049250313e-16 -1
vn 5.621765728987831e-16 -0.8479983040050882 0.5299989400031798
vn -3.7893092124640403e-16 0.8977071943100468 -0.44059254792152835
vn 0 -2.220446049250313e-16 1
vn 0 2.220446049250313e-16 -1
vn -0.4239991520025437 -0.7343880736345257 0.5299989400031799
vn 0.44885359715502265 0.7774372354325539 -0.4405925479215284
vn 0 -2.220446049250313e-16 1
vn 0 2.220446049250313e-16 -1
vn -0.7343880736345257 -0.4239991520025436 0.5299989400031799
vn 0.7774372354325538 0.44885359715502304 -0.44059254792152835
vn 0 -2.220446049250313e-16 1
vn 0 2.220446049250313e-16 -1
vn -0.8479983040050881 -6.798599781424753e-16 0.5299989400031799
vn 0.8977071943100466 9.783119823614871e-17 -0.44059254792152847
vn 0 -2.220446049250313e-16 1
vn 0 2.220446049250313e-16 -1
vn -0.7343880736345257 0.42399915200254373 0.52999894000318
vn 0.7774372354325539 -0.4488535971550231 -0.44059254792152863
vn 0 -2.220446049250313e-16 1
vn 0 2.220446049250313e-16 -1
vn -0.423999152002544 0.7343880736345255 0.52999894000318
vn 0.4488535971550233 -0.7774372354325537 -0.4405925479215285
vn 0 -2.220446049250313e-16 1
vn 0 2.220446049250313e-16 -1
vn 0 0.847998304005088 0.5299989400031802
vn 0 -0.8977071943100466 -0.44059254792152863
vn 0 -2.220446049250313e-16 1
vn 0 2.220446049250313e-16 -1
usemtl PlaceHolderMAT
f 9/25/7 13/26/7 14/27/7 10/28/7
f 12/29/8 16/30/8 15/31/8 11/32/8
f 11/33/9 15/34/9 13/35/9 9/36/9
f 10/37/10 14/38/10 16/39/10 12/40/10
f 13/41/11 17/42/11 18/43/11 14/44/11
f 16/45/12 20/46/12 19/47/12 15/48/12
f 15/49/13 19/50/13 17/51/13 13/52/13
f 14/53/14 18/54/14 20/55/14 16/56/14
f 17/57/15 21/58/15 22/59/15 18/60/15
f 20/61/16 24/62/16 23/63/16 19/64/16
f 19/65/17 23/66/17 21/67/17 17/68/17
f 18/69/18 22/70/18 24/71/18 20/72/18
f 21/73/19 25/74/19 26/75/19 22/76/19
f 24/77/20 28/78/20 27/79/20 23/80/20
f 23/81/21 27/82/21 25/83/21 21/84/21
f 22/85/22 26/86/22 28/87/22 24/88/22
f 25/89/23 29/90/23 30/91/23 26/92/23
f 28/93/24 32/94/24 31/95/24 27/96/24
f 27/97/25 31/98/25 29/99/25 25/100/25
f 26/101/26 30/102/26 32/103/26 28/104/26
f 29/105/27 33/106/27 34/107/27 30/108/27
f 32/109/28 36/110/28 35/111/28 31/112/28
f 31/113/29 35/114/29 33/115/29 29/116/29
f 30/117/30 34/118/30 36/119/30 32/120/30
f 33/121/31 37/122/31 38/123/31 34/124/31
f 36/125/32 40/126/32 39/127/32 35/128/32
f 35/129/33 39/130/33 37/131/33 33/132/33
f 34/133/34 38/134/34 40/135/34 36/136/34
f 37/137/35 41/138/35 42/139/35 38/140/35
f 40/141/36 44/142/36 43/143/36 39/144/36
f 39/145/37 43/146/37 41/147/37 37/148/37
f 38/149/38 42/150/38 44/151/38 40/152/38
f 41/153/39 45/154/39 46/155/39 42/156/39
f 44/157/40 48/158/40 47/159/40 43/160/40
f 43/161/41 47/162/41 45/163/41 41/164/41
f 42/165/42 46/166/42 48/167/42 44/168/42
f 45/169/43 49/170/43 50/171/43 46/172/43
f 48/173/44 52/174/44 51/175/44 47/176/44
f 47/177/45 51/178/45 49/179/45 45/180/45
f 46/181/46 50/182/46 52/183/46 48/184/46
f 49/185/47 53/186/47 54/187/47 50/188/47
f 52/189/48 56/190/48 55/191/48 51/192/48
f 51/193/49 55/194/49 53/195/49 49/196/49
f 50/197/50 54/198/50 56/199/50 52/200/50
f 53/201/51 9/202/51 10/203/51 54/204/51
f 56/205/52 12/206/52 11/207/52 55/208/52
f 55/209/53 11/210/53 9/211/53 53/212/53
f 54/213/54 10/214/54 12/215/54 56/216/54
o tube
v 0.020933530658681435 0.421875 -0.375
v 0.08373412263472582 0.18750000000000017 6.938893903907225e-17
v 0.016438602998146718 0.4386502984054623 -0.375
v 0.06575441199258697 0.25460119362184924 5.448948101131074e-17
v 0.0571914693413185 0.4428085306586815 -0.375
v 0.2287658773652741 0.27123412263472596 5.0796228859900436e-17
v 0.04491109859639095 0.455088901403609 -0.375
v 0.17964439438556387 0.3203556056144362 3.9889068578339024e-17
v 0.07812499999999997 0.4790664693413186 -0.375
v 0.3125 0.41626587736527426 1.8592710179171798e-17
v 0.0613497015945377 0.4835613970018533 -0.375
v 0.2453988063781509 0.4342455880074131 1.4600412432971696e-17
v 0.07812499999999997 0.5209335306586815 -0.375
v 0.3125 0.5837341226347259 -1.8592710179171848e-17
v 0.0613497015945377 0.5164386029981468 -0.375
v 0.2453988063781509 0.5657544119925871 -1.4600412432971742e-17
v 0.05719146934131851 0.5571914693413186 -0.375
v 0.22876587736527418 0.7287658773652743 -5.07962288599005e-17
v 0.04491109859639097 0.544911098596391 -0.375
v 0.17964439438556395 0.6796443943855641 -3.9889068578339085e-17
v 0.02093353065868146 0.578125 -0.375
v 0.08373412263472592 0.8125000000000002 -6.938893903907232e-17
v 0.016438602998146735 0.5613497015945377 -0.375
v 0.06575441199258704 0.745398806378151 -5.44894810113108e-17
v -0.02093353065868145 0.578125 -0.375
v -0.08373412263472571 0.8125000000000002 -6.938893903907232e-17
v -0.01643860299814674 0.5613497015945378 -0.375
v -0.06575441199258689 0.7453988063781511 -5.448948101131081e-17
v -0.05719146934131856 0.5571914693413186 -0.375
v -0.22876587736527415 0.7287658773652743 -5.079622885990051e-17
v -0.044911098596391 0.544911098596391 -0.375
v -0.17964439438556393 0.6796443943855641 -3.988906857833911e-17
v -0.078125 0.5209335306586814 -0.375
v -0.3125 0.5837341226347259 -1.859271017917183e-17
v -0.06134970159453776 0.5164386029981468 -0.375
v -0.24539880637815095 0.565754411992587 -1.460041243297173e-17
v -0.07812500000000003 0.4790664693413186 -0.375
v -0.3125 0.41626587736527443 1.8592710179171767e-17
v -0.06134970159453776 0.4835613970018533 -0.375
v -0.24539880637815095 0.4342455880074132 1.460041243297167e-17
v -0.057191469341318565 0.4428085306586815 -0.375
v -0.22876587736527423 0.27123412263472607 5.079622885990041e-17
v -0.04491109859639102 0.455088901403609 -0.375
v -0.179644394385564 0.32035560561443627 3.988906857833901e-17
v -0.02093353065868147 0.421875 -0.375
v -0.08373412263472582 0.18750000000000017 6.938893903907225e-17
v -0.016438602998146763 0.4386502984054623 -0.375
v -0.06575441199258697 0.25460119362184924 5.448948101131074e-17
vt 0 0.5
vt 0.26795 0.5
vt 0.26795 1
vt 0 1
vt 0.2104125 1
vt 0 1
vt 0 0.5
vt 0.2104125 0.5
vt 5.551115123125783e-17 0.9712338382135871
vt 0 0.7608192340054607
vt 0.1073608929841336 0.7320513050606374
vt 0.1073631935017324 1
vt 0 0.8926370534788388
vt 0.26794869494923834 0.8926370534788388
vt 0.23918168777008322 0.9999981934508018
vt 0.028767083569711985 1
vt 0 0.5
vt 0.26795 0.5
vt 0.26795 1
vt 0 1
vt 0.2104125 1
vt 0 1
vt 0 0.5
vt 0.2104125 0.5
vt 0 0.9712320710551766
vt 5.551115123125783e-17 0.7608174668470502
vt 0.1073631935017324 0.7320513050606374
vt 0.10736089298413354 1
vt 0 0.892637053478839
vt 0.2679486949492383 0.8926370534788388
vt 0.2391816113795264 1
vt 0.028767007179155174 0.999998193450802
vt 0 0.5
vt 0.26795 0.5
vt 0.26795 1
vt 0 1
vt 0.2104125 1
vt 0 1
vt 0 0.5
vt 0.2104125 0.5
vt 0 0.97123125
vt 0 0.76081875
vt 0.10736250000000003 0.73205
vt 0.10736250000000003 1
vt 0.10736250000000003 0.73205
vt 0.10736250000000003 1
vt 0 0.97123125
vt 0 0.76081875
vt 0 0.5
vt 0.26795 0.5
vt 0.26795 1
vt 0 1
vt 0.2104125 1
vt 0 1
vt 0 0.5
vt 0.2104125 0.5
vt 0.23918253315294977 1
vt 0.02876792894482333 1
vt 0 0.8926391070158664
vt 0.26794869493936263 0.8926368064982676
vt 0.10736294652116113 0.7320513050507615
vt 0.10736294652116107 1
vt 0.0000018065491981245074 0.9712329928208447
vt 0 0.7608183886204736
vt 0 0.5
vt 0.26795 0.5
vt 0.26795 1
vt 0 1
vt 0.2104125 1
vt 0 1
vt 0 0.5
vt 0.2104125 0.5
vt 0.23918076599453925 1
vt 0.028766161786412836 1
vt 0 0.8926368064982676
vt 0.2679486949393626 0.8926391070158665
vt 0.10736294652116124 0.7320513050507617
vt 0.10736294652116118 1
vt 0 0.971232916430288
vt 0.0000018065491982910409 0.7608183122299168
vt 0 0.5
vt 0.26795 0.5
vt 0.26795 1
vt 0 1
vt 0.2104125 1
vt 0 1
vt 0 0.5
vt 0.2104125 0.5
vt 0.23918125 1
vt 0.02876875000000001 1
vt 0 0.8926375
vt 0.26795 0.8926375
vt 0.26795 1
vt 0 1
vt 0.02876875000000001 0.8926375
vt 0.23918125 0.8926375
vt 0 0.5
vt 0.26795 0.5
vt 0.26795 1
vt 0 1
vt 0.2104125 1
vt 0 1
vt 0 0.5
vt 0.2104125 0.5
vt 0.1073631935017324 0.7608174668470502
vt 0.10736319350173235 0.9712320710551767
vt 0.000002300517598752272 1
vt 0 0.7320513050606373
vt 0.26794869494923834 1
vt 0 1
vt 0.02876700717915512 0.892638860028037
vt 0.23918161137952637 0.8926370534788388
vt 0 0.5
vt 0.26795 0.5
vt 0.26795 1
vt 0 1
vt 0.2104125 1
vt 0 1
vt 0 0.5
vt 0.2104125 0.5
vt 0.1073631935017324 0.7608192340054607
vt 0.10736319350173235 0.9712338382135872
vt 0 1
vt 0.000002300517598863294 0.7320513050606374
vt 0.26794869494923834 1
vt 0 1
vt 0.028767083569712013 0.8926370534788388
vt 0.23918168777008322 0.892638860028037
vt 0 0.5
vt 0.26795 0.5
vt 0.26795 1
vt 0 1
vt 0.2104125 1
vt 0 1
vt 0 0.5
vt 0.2104125 0.5
vt 0.10736250000000003 0.76081875
vt 0.10736250000000003 0.97123125
vt 0 1
vt 0 0.73205
vt 0 1
vt 0 0.73205
vt 0.10736250000000003 0.76081875
vt 0.10736250000000003 0.97123125
vt 0 0.5
vt 0.26795 0.5
vt 0.26795 1
vt 0 1
vt 0.2104125 1
vt 0 1
vt 0 0.5
vt 0.2104125 0.5
vt 0.028766161786412864 0.8926368064982677
vt 0.2391807659945393 0.8926368064982676
vt 0.26794869493936263 0.9999976994824011
vt 0 1
vt 5.551115123125783e-17 1
vt 0 0.7320513050507617
vt 0.107361139971963 0.7608183122299168
vt 0.10736294652116124 0.971232916430288
vt 0 0.5
vt 0.26795 0.5
vt 0.26795 1
vt 0 1
vt 0.2104125 1
vt 0 1
vt 0 0.5
vt 0.2104125 0.5
vt 0.028767928944823357 0.8926368064982676
vt 0.23918253315294977 0.8926368064982677
vt 0.2679486949393626 1
vt 0 0.9999976994824011
vt 0 1
vt 5.551115123125783e-17 0.7320513050507617
vt 0.10736294652116124 0.7608183886204737
vt 0.10736113997196295 0.971232992820845
vt 0 0.5
vt 0.26795 0.5
vt 0.26795 1
vt 0 1
vt 0.2104125 1
vt 0 1
vt 0 0.5
vt 0.2104125 0.5
vt 0.02876875000000001 0.8926375
vt 0.23918125 0.8926375
vt 0.26795 1
vt 0 1
vt 0 0.8926375
vt 0.26795 0.8926375
vt 0.23918125 1
vt 0.02876875000000001 1
vn 0.42399915200254407 -0.7343880736345255 -0.5299989400031798
vn -0.44885359715502343 0.7774372354325539 0.4405925479215282
vn 0 -2.220446049250313e-16 -1
vn 0 2.220446049250313e-16 1
vn 0.7343880736345255 -0.4239991520025443 -0.5299989400031799
vn -0.7774372354325534 0.4488535971550237 0.4405925479215283
vn 0 -2.220446049250313e-16 -1
vn 0 2.220446049250313e-16 1
vn 0.847998304005088 -1.1768340524369148e-16 -0.52999894000318
vn -0.8977071943100468 9.783119823614872e-17 0.4405925479215285
vn 0 -2.220446049250313e-16 -1
vn 0 2.220446049250313e-16 1
vn 0.7343880736345254 0.42399915200254396 -0.5299989400031803
vn -0.7774372354325538 -0.448853597155023 0.4405925479215287
vn 0 -2.220446049250313e-16 -1
vn 0 2.220446049250313e-16 1
vn 0.42399915200254384 0.7343880736345253 -0.5299989400031803
vn -0.44885359715502327 -0.7774372354325534 0.44059254792152874
vn 0 -2.220446049250313e-16 -1
vn 0 2.220446049250313e-16 1
vn 5.621765728987831e-16 0.847998304005088 -0.5299989400031802
vn -3.7893092124640403e-16 -0.8977071943100465 0.4405925479215288
vn 0 -2.220446049250313e-16 -1
vn 0 2.220446049250313e-16 1
vn -0.4239991520025437 0.7343880736345255 -0.5299989400031802
vn 0.44885359715502277 -0.7774372354325539 0.44059254792152874
vn 0 -2.220446049250313e-16 -1
vn 0 2.220446049250313e-16 1
vn -0.7343880736345257 0.4239991520025434 -0.5299989400031802
vn 0.7774372354325539 -0.44885359715502293 0.44059254792152863
vn 0 -2.220446049250313e-16 -1
vn 0 2.220446049250313e-16 1
vn -0.8479983040050881 4.444931676550923e-16 -0.5299989400031799
vn 0.8977071943100466 9.783119823614871e-17 0.44059254792152847
vn 0 -2.220446049250313e-16 -1
vn 0 2.220446049250313e-16 1
vn -0.7343880736345256 -0.42399915200254384 -0.5299989400031798
vn 0.7774372354325537 0.4488535971550232 0.4405925479215283
vn 0 -2.220446049250313e-16 -1
vn 0 2.220446049250313e-16 1
vn -0.423999152002544 -0.7343880736345257 -0.5299989400031798
vn 0.4488535971550233 0.7774372354325539 0.4405925479215282
vn 0 -2.220446049250313e-16 -1
vn 0 2.220446049250313e-16 1
vn 0 -0.8479983040050882 -0.5299989400031797
vn 0 0.8977071943100469 0.4405925479215282
vn 0 -2.220446049250313e-16 -1
vn 0 2.220446049250313e-16 1
usemtl PlaceHolderMAT
f 57/217/55 61/218/55 62/219/55 58/220/55
f 60/221/56 64/222/56 63/223/56 59/224/56
f 59/225/57 63/226/57 61/227/57 57/228/57
f 58/229/58 62/230/58 64/231/58 60/232/58
f 61/233/59 65/234/59 66/235/59 62/236/59
f 64/237/60 68/238/60 67/239/60 63/240/60
f 63/241/61 67/242/61 65/243/61 61/244/61
f 62/245/62 66/246/62 68/247/62 64/248/62
f 65/249/63 69/250/63 70/251/63 66/252/63
f 68/253/64 72/254/64 71/255/64 67/256/64
f 67/257/65 71/258/65 69/259/65 65/260/65
f 66/261/66 70/262/66 72/263/66 68/264/66
f 69/265/67 73/266/67 74/267/67 70/268/67
f 72/269/68 76/270/68 75/271/68 71/272/68
f 71/273/69 75/274/69 73/275/69 69/276/69
f 70/277/70 74/278/70 76/279/70 72/280/70
f 73/281/71 77/282/71 78/283/71 74/284/71
f 76/285/72 80/286/72 79/287/72 75/288/72
f 75/289/73 79/290/73 77/291/73 73/292/73
f 74/293/74 78/294/74 80/295/74 76/296/74
f 77/297/75 81/298/75 82/299/75 78/300/75
f 80/301/76 84/302/76 83/303/76 79/304/76
f 79/305/77 83/306/77 81/307/77 77/308/77
f 78/309/78 82/310/78 84/311/78 80/312/78
f 81/313/79 85/314/79 86/315/79 82/316/79
f 84/317/80 88/318/80 87/319/80 83/320/80
f 83/321/81 87/322/81 85/323/81 81/324/81
f 82/325/82 86/326/82 88/327/82 84/328/82
f 85/329/83 89/330/83 90/331/83 86/332/83
f 88/333/84 92/334/84 91/335/84 87/336/84
f 87/337/85 91/338/85 89/339/85 85/340/85
f 86/341/86 90/342/86 92/343/86 88/344/86
f 89/345/87 93/346/87 94/347/87 90/348/87
f 92/349/88 96/350/88 95/351/88 91/352/88
f 91/353/89 95/354/89 93/355/89 89/356/89
f 90/357/90 94/358/90 96/359/90 92/360/90
f 93/361/91 97/362/91 98/363/91 94/364/91
f 96/365/92 100/366/92 99/367/92 95/368/92
f 95/369/93 99/370/93 97/371/93 93/372/93
f 94/373/94 98/374/94 100/375/94 96/376/94
f 97/377/95 101/378/95 102/379/95 98/380/95
f 100/381/96 104/382/96 103/383/96 99/384/96
f 99/385/97 103/386/97 101/387/97 97/388/97
f 98/389/98 102/390/98 104/391/98 100/392/98
f 101/393/99 57/394/99 58/395/99 102/396/99
f 104/397/100 60/398/100 59/399/100 103/400/100
f 103/401/101 59/402/101 57/403/101 101/404/101
f 102/405/102 58/406/102 60/407/102 104/408/102